<svg width="32" height="31" viewBox="0 0 32 31" fill="none" xmlns="http://www.w3.org/2000/svg">
<g clip-path="url(#clip0_64_299)">
<path d="M5.66667 0H26.3333C29.4667 0 32 2.51709 32 5.63034V25.3697C32 28.4829 29.4667 31 26.3333 31H5.66667C2.53333 31 0 28.4829 0 25.3697V5.63034C0 2.51709 2.53333 0 5.66667 0Z" fill="black"/>
<path d="M15.5064 18.6001H10.5464L9.53309 21.7133C9.50642 21.8326 9.39976 21.912 9.27976 21.8988H6.77309C6.62642 21.8988 6.58642 21.8193 6.62642 21.6603L10.9198 9.37956C10.9598 9.24709 10.9998 9.10136 11.0531 8.94238C11.1064 8.66418 11.1331 8.37273 11.1331 8.08127C11.1198 8.01503 11.1731 7.94879 11.2398 7.93555C11.2531 7.93555 11.2664 7.93555 11.2798 7.93555H14.6931C14.7998 7.93555 14.8531 7.97529 14.8664 8.04153L19.7331 21.6868C19.7731 21.8326 19.7331 21.8988 19.5998 21.8988H16.8131C16.7198 21.912 16.6264 21.8458 16.5998 21.7531L15.5064 18.6001ZM11.3198 15.9108H14.7064C14.6264 15.6326 14.5198 15.3014 14.3998 14.9569C14.2798 14.5992 14.1598 14.215 14.0398 13.8176C13.9064 13.4069 13.7864 13.0095 13.6531 12.5988C13.5198 12.1881 13.3998 11.8039 13.2931 11.4197C13.1864 11.0488 13.0931 10.7044 12.9998 10.3864H12.9731C12.8531 10.9561 12.7064 11.5257 12.5198 12.0954C12.3198 12.7313 12.1198 13.3937 11.9064 14.0561C11.7198 14.7317 11.5198 15.3544 11.3198 15.9108Z" fill="white"/>
<path d="M22.6398 10.2009C22.1998 10.2142 21.7731 10.042 21.4531 9.73727C21.1465 9.40607 20.9865 8.96889 20.9998 8.51847C20.9865 8.06804 21.1598 7.64411 21.4798 7.33941C21.7998 7.03471 22.2265 6.87573 22.6665 6.87573C23.1865 6.87573 23.5865 7.03471 23.8798 7.33941C24.1731 7.65736 24.3331 8.08129 24.3198 8.51847C24.3331 8.96889 24.1731 9.40607 23.8531 9.73727C23.5465 10.0552 23.0931 10.2274 22.6398 10.2009ZM21.1465 21.7001V11.4992C21.1465 11.3668 21.1998 11.3138 21.3198 11.3138H23.9598C24.0798 11.3138 24.1331 11.38 24.1331 11.4992V21.7001C24.1331 21.8458 24.0798 21.9121 23.9598 21.9121H21.3465C21.2131 21.9121 21.1465 21.8326 21.1465 21.7001Z" fill="white"/>
</g>
<defs>
<clipPath id="clip0_64_299">
<rect width="32" height="31" fill="white"/>
</clipPath>
</defs>
</svg>
