<svg width="62" height="61" viewBox="0 0 62 61" fill="none" xmlns="http://www.w3.org/2000/svg">
<path d="M27.9424 0.0764084C26.399 0.225933 23.9203 0.697517 22.4588 1.11159C19.9801 1.80171 16.6596 3.26247 14.5551 4.5737C11.8075 6.276 8.48696 9.18601 6.72147 11.4289C3.07359 16.0642 0.910575 21.1251 0.16229 26.8071C-0.0949326 28.6934 -0.0364728 32.9262 0.267518 34.8585C1.13272 40.345 3.2022 45.0838 6.65132 49.4086C7.66852 50.6968 10.1238 53.1237 11.4801 54.1934C15.6307 57.483 20.705 59.7489 25.908 60.6116C29.6611 61.2442 34.3379 61.0946 38.0676 60.232C41.4699 59.4499 45.1061 57.8856 48.111 55.9072C50.0285 54.6535 51.2093 53.6988 52.8228 52.1346C57.3944 47.6833 60.3992 42.0358 61.545 35.7787C61.8607 34.0304 62.0712 31.4769 61.9776 30.4302C61.5918 25.91 57.8153 22.3328 53.3139 22.2293C52.741 22.2178 51.6069 22.2523 50.8001 22.3098C49.3152 22.4133 47.2925 22.3213 47.2925 22.1488C47.2925 22.1028 50.2389 19.1583 53.84 15.6041C57.4411 12.05 60.5512 8.90996 60.75 8.62241C62.1764 6.57505 61.8724 3.66504 60.0485 1.90523C58.318 0.24894 55.8861 -0.153633 53.7348 0.88155C53.0333 1.21511 52.3318 1.87072 46.2169 7.86328C42.4988 11.5094 39.4239 14.4424 39.3771 14.3964C39.2836 14.3044 39.2602 11.797 39.3303 9.03648C39.3771 7.31118 39.1432 6.2875 38.3833 4.78074C37.9741 3.97559 37.6818 3.59603 36.7113 2.64136C35.6941 1.62918 35.3901 1.41064 34.4314 0.950562C33.8234 0.651508 33.005 0.329453 32.6191 0.225933C31.7656 0.0073967 29.4039 -0.0731201 27.9424 0.0764084ZM31.4149 3.64204C32.4555 3.84907 33.4142 4.38967 34.1976 5.19481C35.4135 6.43703 35.8695 7.80577 35.7058 9.66909C35.472 12.188 35.659 14.8795 36.1735 16.6853L36.4073 17.4905L32.2333 21.6082C29.5792 24.2307 27.9541 25.7374 27.767 25.7834C26.0366 26.1285 24.9609 26.6116 23.628 27.6813C21.617 29.28 20.4946 31.1549 19.6995 34.2834C19.5125 34.9735 19.3137 35.9627 19.2436 36.4688C19.0214 37.9871 19.0916 37.8721 18.39 37.8145C15.0461 37.55 12.1582 40.621 12.6844 43.9106C13.2573 47.5683 17.1273 49.5811 20.4829 47.9708C22.377 47.0507 23.4293 45.4059 23.4994 43.255L23.5228 42.2198L24.2126 42.1278C27.5799 41.6907 30.4444 40.6786 32.1398 39.3443C34.0105 37.8721 35.4837 35.6407 35.6824 33.9729L35.7526 33.3748L39.95 29.257C42.9665 26.2895 44.2059 25.1508 44.3462 25.1853C46.3104 25.7949 48.2162 26.002 50.6832 25.8754C51.7472 25.8294 52.9281 25.7949 53.3139 25.8064C55.699 25.8754 57.8387 27.7618 58.283 30.1887C58.435 31.0169 58.3648 32.3971 58.0959 34.3409C57.4295 38.9878 55.3015 43.7496 52.1798 47.5453C50.5312 49.5581 47.7485 51.9505 45.3517 53.4113C42.2182 55.3321 38.2196 56.7009 34.408 57.184C32.3736 57.437 28.3399 57.3565 26.4224 57.0229C17.6651 55.4932 10.2641 50.0872 6.48763 42.4499C4.5117 38.4472 3.64649 34.8585 3.64649 30.5453C3.64649 27.6007 3.97387 25.2888 4.74553 22.7814C6.14857 18.2956 8.37004 14.6495 11.6789 11.3829C14.7422 8.36937 18.2731 6.24149 22.5173 4.84975C25.5455 3.86057 29.6962 3.29697 31.4149 3.64204ZM57.2307 4.20564C57.6282 4.49318 58.0374 5.22931 58.0491 5.6894C58.0491 5.85042 57.9439 6.18398 57.8153 6.43703C57.6633 6.75908 54.6935 9.76111 48.8125 15.5351L40.0435 24.1616L38.7223 22.8619L37.4128 21.5737L46.2403 12.8897C51.0924 8.11632 55.2197 4.12512 55.4184 4.0331C55.8978 3.79156 56.7513 3.87207 57.2307 4.20564ZM37.3544 26.6921C37.3544 26.7611 36.7698 27.3822 36.0566 28.0723L34.7705 29.3376L34.5249 28.9925C34.1976 28.5439 32.9582 27.3247 32.5022 27.0026L32.1515 26.7611L33.496 25.4384L34.8406 24.1041L36.0917 25.3349C36.7932 26.0135 37.3544 26.6231 37.3544 26.6921ZM29.9066 29.6366C30.6198 30.0047 31.4733 30.8443 31.8124 31.5459C32.5139 32.9377 32.0813 34.3869 30.5029 35.9742C29.7195 36.7564 28.7725 37.32 27.5215 37.7455C26.6562 38.0331 24.3763 38.5162 23.2422 38.6427C22.5056 38.7347 22.529 38.8382 22.8564 36.9289C23.441 33.5933 24.2594 31.799 25.7794 30.5568C27.311 29.3031 28.6439 29.004 29.9066 29.6366ZM19.1383 41.7252C19.91 42.2543 20.0971 43.347 19.5826 44.1752C19.0214 45.0608 17.7119 45.2334 16.9052 44.5202C15.9113 43.6346 16.0984 42.1163 17.2793 41.5757C17.8756 41.2997 18.6239 41.3572 19.1383 41.7252Z" fill="black"/>
<path d="M23.2654 8.73743C20.7516 9.33554 19.1147 11.3829 19.1147 13.9248C19.1147 17.801 22.8796 20.3315 26.5976 18.9397C28.4449 18.2496 29.7895 16.3748 29.9532 14.2584C30.2221 10.7388 26.7847 7.89779 23.2654 8.73743ZM25.5219 12.4526C26.3404 13.0507 26.5625 13.9248 26.1065 14.7875C25.2413 16.4323 22.7393 15.8112 22.7393 13.9479C22.7393 13.2117 23.09 12.6481 23.7214 12.3491C24.306 12.0845 25.0893 12.1305 25.5219 12.4526Z" fill="black"/>
<path d="M11.9596 20.8721C8.47539 21.9763 7.0022 26.025 9.02491 29.0155C10.6267 31.3964 13.9823 32.1211 16.4259 30.6028C18.0511 29.5906 18.9981 27.9228 18.9981 26.0825C18.9981 24.5872 18.5422 23.4485 17.5016 22.3558C16.0752 20.8606 13.8771 20.274 11.9596 20.8721ZM14.5435 24.5297C16.0284 25.6224 15.3853 27.7848 13.5614 27.7848C11.5621 27.7848 11.0593 25.1163 12.9183 24.3457C13.3392 24.1732 14.1811 24.2652 14.5435 24.5297Z" fill="black"/>
<path d="M46.3925 31.638C43.6799 32.3626 41.9262 34.9506 42.3704 37.6075C42.7329 39.7699 44.3932 41.5642 46.486 42.0358C47.7955 42.3349 49.4558 42.0933 50.5899 41.4377C52.4138 40.391 53.5246 37.9986 53.1504 35.9512C52.5775 32.8227 49.4441 30.8328 46.3925 31.638ZM48.7893 35.3416C49.2921 35.6982 49.6662 36.5378 49.5727 37.1014C49.4207 37.9526 48.649 38.5967 47.7604 38.5967C46.1469 38.5967 45.3636 36.7679 46.4509 35.5602C46.9537 35.0081 48.158 34.893 48.7893 35.3416Z" fill="black"/>
<path d="M33.7176 42.5533C30.6894 43.6 29.1812 47.0046 30.5024 49.8111C31.5897 52.146 34.3724 53.4573 36.8394 52.8132C39.7273 52.054 41.5629 49.0865 40.8147 46.3605C40.4639 45.0378 39.4116 43.6345 38.3126 43.0019C36.9914 42.2313 35.1441 42.0588 33.7176 42.5533ZM36.7108 46.303C37.4474 47.0161 37.5409 48.0053 36.9212 48.7299C35.8807 49.9376 33.9749 49.4086 33.6709 47.8328C33.5773 47.3037 33.9982 46.4525 34.5478 46.096C34.8868 45.8659 35.0739 45.8314 35.6351 45.8659C36.208 45.9119 36.36 45.9694 36.7108 46.303Z" fill="black"/>
</svg>
