<svg width="31" height="30" viewBox="0 0 31 30" fill="none" xmlns="http://www.w3.org/2000/svg">
<path d="M8.61111 0C3.85606 0 0 3.73167 0 8.33333V21.6667C0 26.2683 3.85606 30 8.61111 30H22.3889C27.1439 30 31 26.2683 31 21.6667V8.33333C31 3.73167 27.1439 0 22.3889 0H8.61111ZM25.8333 3.33333C26.784 3.33333 27.5556 4.08 27.5556 5C27.5556 5.92 26.784 6.66667 25.8333 6.66667C24.8827 6.66667 24.1111 5.92 24.1111 5C24.1111 4.08 24.8827 3.33333 25.8333 3.33333ZM15.5 6.66667C20.2551 6.66667 24.1111 10.3983 24.1111 15C24.1111 19.6017 20.2551 23.3333 15.5 23.3333C10.7449 23.3333 6.88889 19.6017 6.88889 15C6.88889 10.3983 10.7449 6.66667 15.5 6.66667ZM15.5 10C14.1297 10 12.8156 10.5268 11.8466 11.4645C10.8777 12.4021 10.3333 13.6739 10.3333 15C10.3333 16.3261 10.8777 17.5979 11.8466 18.5355C12.8156 19.4732 14.1297 20 15.5 20C16.8703 20 18.1844 19.4732 19.1534 18.5355C20.1223 17.5979 20.6667 16.3261 20.6667 15C20.6667 13.6739 20.1223 12.4021 19.1534 11.4645C18.1844 10.5268 16.8703 10 15.5 10Z" fill="black"/>
</svg>
