<svg width="31" height="30" viewBox="0 0 31 30" fill="none" xmlns="http://www.w3.org/2000/svg">
<path d="M14.9996 0C23.2842 0 30 6.71491 30 14.9996C30 23.2843 23.285 30 14.9996 30C6.71503 30 0 23.2843 0 14.9996V1.24572C0 0.558727 0.561469 0 1.2457 0H14.9996ZM4.69473 14.7933C4.642 20.5443 9.26556 25.2502 15.012 25.3065C20.7627 25.3589 25.4695 20.7408 25.5248 14.9891C25.5794 9.23805 20.96 4.53131 15.2075 4.47699C9.45761 4.42153 4.75008 9.0415 4.6936 14.7917L4.69473 14.7933ZM15.168 7.31401C19.3882 7.35551 22.7657 10.8033 22.7306 15.017C22.6956 19.2299 19.2477 22.6147 15.0365 22.5762C10.8227 22.5351 7.43805 19.0861 7.47646 14.8732C7.51789 10.6592 10.9665 7.27477 15.1796 7.31401H15.168ZM15.0715 18.8107C17.206 18.8371 18.9521 17.1176 18.9721 14.9857C18.9924 12.8537 17.279 11.1078 15.1454 11.0814C13.0117 11.0614 11.2648 12.7745 11.2456 14.9091C11.2245 17.0421 12.9379 18.7889 15.0723 18.8096L15.0715 18.8107Z" fill="black"/>
</svg>
