<svg width="31" height="30" viewBox="0 0 31 30" fill="none" xmlns="http://www.w3.org/2000/svg">
<path d="M27.3095 0H3.69048C1.65333 0 0 1.6 0 3.57143V26.4286C0 28.4 1.65333 30 3.69048 30H27.3095C29.3467 30 31 28.4 31 26.4286V3.57143C31 1.6 29.3467 0 27.3095 0ZM9.59524 11.4286V25H5.16667V11.4286H9.59524ZM5.16667 7.47857C5.16667 6.47857 6.05238 5.71429 7.38095 5.71429C8.70952 5.71429 9.54357 6.47857 9.59524 7.47857C9.59524 8.47857 8.76857 9.28571 7.38095 9.28571C6.05238 9.28571 5.16667 8.47857 5.16667 7.47857ZM25.8333 25H21.4048C21.4048 25 21.4048 18.3857 21.4048 17.8571C21.4048 16.4286 20.6667 15 18.8214 14.9714H18.7624C16.9762 14.9714 16.2381 16.4429 16.2381 17.8571C16.2381 18.5071 16.2381 25 16.2381 25H11.8095V11.4286H16.2381V13.2571C16.2381 13.2571 17.6626 11.4286 20.5264 11.4286C23.4567 11.4286 25.8333 13.3786 25.8333 17.3286V25Z" fill="black"/>
</svg>
