<svg width="31" height="30" viewBox="0 0 31 30" fill="none" xmlns="http://www.w3.org/2000/svg">
<path d="M3.69048 0C1.65333 0 0 1.6 0 3.57143V26.4286C0 28.4 1.65333 30 3.69048 30H27.3095C29.3467 30 31 28.4 31 26.4286V3.57143C31 1.6 29.3467 0 27.3095 0H3.69048ZM5.90476 10H10.8725C11.4113 10 14.3265 9.96451 14.3265 12.5502C14.3265 13.9217 13.3594 14.3855 12.9239 14.5926C13.5734 14.7926 14.7619 15.3714 14.7619 17.1429C14.7619 19.8786 11.5213 20 11.0858 20H5.90476V10ZM18.4524 10H23.619V11.4286H18.4524V10ZM8.11905 11.7355V14.0792H10.4962C10.821 14.0792 11.8975 13.9071 11.8975 12.8571C11.8975 11.8071 10.4955 11.7355 10.2814 11.7355H8.11905ZM21.2058 12.1429C24.0844 12.1429 24.8661 14.3141 24.9842 14.8284C25.0949 15.3498 25.0952 15.8071 25.0952 16.4286H19.264C19.264 17.05 19.6043 18.4501 21.324 18.4501C21.7817 18.4501 22.1203 18.3433 22.4672 18.1362C22.8067 17.929 22.9259 17.7281 23.0366 17.5209H24.977C24.6375 18.3424 24.1801 18.9649 23.4936 19.3792C22.8072 19.7935 22.0101 20 21.0948 20C20.5191 20 19.9507 19.8932 19.375 19.6861C18.9174 19.479 18.4603 19.1715 18.1208 18.8644C17.7813 18.5501 17.5524 18.1357 17.3236 17.6214C17.0948 17.2071 16.9762 16.5857 16.9762 16.0714C16.9762 15.5571 17.1906 12.1429 21.2058 12.1429ZM21.2058 13.5924C19.5377 13.5924 19.264 15.1427 19.264 15.2427H22.9256C22.8075 14.7285 22.3277 13.5924 21.2058 13.5924ZM8.11905 15.5078V18.2645H10.5928C10.8061 18.2645 12.3112 18.2007 12.3112 16.9364C12.3112 15.6792 11.1287 15.5078 10.5928 15.5078H8.11905Z" fill="black"/>
</svg>
