<svg width="21" height="22" viewBox="0 0 21 22" fill="none" xmlns="http://www.w3.org/2000/svg">
<path d="M18.47 0H7.09595C5.70081 0 4.56494 1.1394 4.56494 2.5401V2.75H13.9047C16.3069 2.75 18.2609 4.7126 18.2609 7.1234V12.8333H18.47C19.8651 12.8333 21.0001 11.6939 21.0001 10.2932V2.5401C21.0001 1.1394 19.8652 0 18.47 0Z" fill="white"/>
<path d="M13.905 4.58337H2.53011C1.13497 4.58337 0 5.72278 0 7.12347V14.8766C0 16.2773 1.13492 17.4167 2.53011 17.4167H2.73919V21.0834C2.73919 21.4537 2.96106 21.7883 3.30256 21.9304C3.41577 21.9771 3.5345 22 3.65228 22C3.88969 22 4.12342 21.9065 4.29783 21.7314L8.59562 17.4167H13.9051C15.3002 17.4167 16.4352 16.2773 16.4352 14.8766V7.12343C16.4351 5.72278 15.3002 4.58337 13.905 4.58337ZM4.56533 11.9167C4.06132 11.9167 3.65228 11.506 3.65228 11C3.65228 10.494 4.06132 10.0834 4.56533 10.0834C5.06934 10.0834 5.47838 10.494 5.47838 11C5.47838 11.506 5.06934 11.9167 4.56533 11.9167ZM8.21757 11.9167C7.71356 11.9167 7.30452 11.506 7.30452 11C7.30452 10.494 7.71356 10.0834 8.21757 10.0834C8.72158 10.0834 9.13062 10.494 9.13062 11C9.13062 11.506 8.72158 11.9167 8.21757 11.9167ZM11.8698 11.9167C11.3658 11.9167 10.9568 11.506 10.9568 11C10.9568 10.494 11.3658 10.0834 11.8698 10.0834C12.3738 10.0834 12.7829 10.494 12.7829 11C12.7829 11.506 12.3738 11.9167 11.8698 11.9167Z" fill="white"/>
</svg>
