<svg width="32" height="32" viewBox="0 0 32 32" fill="none" xmlns="http://www.w3.org/2000/svg">
<path d="M22.6011 15.9536L16.3963 9.64122L10.0839 15.846L12.2556 18.0553L14.7805 15.5734L14.724 22.1449L17.8533 22.1718L17.9098 15.6003L20.3917 18.1253L22.6011 15.9536ZM31.9889 16.0344C31.9703 18.1988 31.5421 20.2293 30.7043 22.1259C29.8665 24.0224 28.7374 25.6688 27.3171 27.0648C25.8968 28.4609 24.2313 29.5615 22.3206 30.3665C20.4099 31.1716 18.3723 31.5648 16.2079 31.5462C14.0435 31.5276 12.013 31.0994 10.1164 30.2616C8.21985 29.4237 6.57352 28.2947 5.17746 26.8744C3.78139 25.4541 2.68083 23.7886 1.87576 21.8779C1.0707 19.9672 0.677476 17.9296 0.696091 15.7652C0.714706 13.6008 1.14292 11.5703 1.98073 9.67371C2.81854 7.77713 3.94758 6.13081 5.36787 4.73475C6.78816 3.33868 8.45366 2.23811 10.3644 1.43305C12.2751 0.627987 14.3126 0.234762 16.4771 0.253377C18.6415 0.271992 20.672 0.700205 22.5686 1.53801C24.4651 2.37582 26.1115 3.50487 27.5075 4.92516C28.9036 6.34545 30.0042 8.01095 30.8092 9.92166C31.6143 11.8324 32.0075 13.8699 31.9889 16.0344ZM28.8596 16.0074C28.8897 12.5131 27.7025 9.54287 25.2982 7.09681C22.8939 4.65076 19.9445 3.41271 16.4502 3.38266C12.9558 3.35261 9.98558 4.53975 7.53953 6.94408C5.09348 9.34842 3.85543 12.2978 3.82537 15.7921C3.79532 19.2865 4.98246 22.2567 7.38679 24.7028C9.79113 27.1488 12.7405 28.3869 16.2348 28.4169C19.7292 28.447 22.6994 27.2598 25.1455 24.8555C27.5915 22.4512 28.8296 19.5018 28.8596 16.0074Z" fill="black"/>
</svg>
