<svg width="32" height="31" viewBox="0 0 32 31" fill="none" xmlns="http://www.w3.org/2000/svg">
<g clip-path="url(#clip0_64_281)">
<path d="M5.66667 0.00341797H26.3333C29.4667 0.00341797 32 2.52 32 5.63261V25.3679C32 28.4805 29.4667 30.9971 26.3333 30.9971H5.66667C2.53333 30.9971 0 28.4805 0 25.3679V5.63261C0 2.52 2.53333 0.00341797 5.66667 0.00341797Z" fill="black"/>
<path d="M11.6267 8.10923V21.7517C11.6267 21.8974 11.56 21.9636 11.44 21.9636H8.82665C8.70665 21.9636 8.65332 21.8974 8.65332 21.7517V8.10923C8.65332 7.99002 8.71999 7.93704 8.83999 7.93704H11.44C11.52 7.92379 11.6 7.97678 11.6133 8.06949C11.6267 8.08274 11.6267 8.09598 11.6267 8.10923ZM19.3333 22.1226C18.3467 22.1358 17.36 21.9372 16.4667 21.5266C15.6267 21.1424 14.9333 20.5067 14.4533 19.7252C13.96 18.9173 13.72 17.9106 13.72 16.7053C13.7067 15.7252 13.96 14.7583 14.4533 13.9106C14.96 13.0497 15.6933 12.3344 16.5733 11.8576C17.5067 11.341 18.6267 11.0894 19.9467 11.0894C20.0133 11.0894 20.1067 11.0894 20.2267 11.1026C20.3467 11.1159 20.48 11.1159 20.64 11.1291V6.94365C20.64 6.85094 20.68 6.79796 20.7733 6.79796H23.48C23.5467 6.78471 23.6 6.83769 23.6133 6.89067V19.5265C23.6133 19.765 23.6267 20.0299 23.64 20.3212C23.6667 20.5994 23.68 20.8643 23.6933 21.0895C23.6933 21.1822 23.6533 21.2617 23.56 21.3014C22.8667 21.5928 22.1333 21.8047 21.3867 21.9372C20.72 22.0564 20.0267 22.1226 19.3333 22.1226ZM20.64 19.4736V13.6457C20.52 13.6192 20.4 13.5927 20.28 13.5795C20.1333 13.5662 19.9867 13.553 19.84 13.553C19.32 13.553 18.8 13.6589 18.3333 13.8974C17.88 14.1225 17.4933 14.4537 17.2 14.8775C16.9067 15.3013 16.76 15.8709 16.76 16.5596C16.7467 17.0232 16.8267 17.4868 16.9867 17.9239C17.12 18.2815 17.32 18.5994 17.5867 18.8643C17.84 19.1027 18.1467 19.2881 18.4933 19.3941C18.8533 19.5133 19.2267 19.5663 19.6 19.5663C19.8 19.5663 19.9867 19.553 20.16 19.5398C20.3333 19.553 20.4933 19.5265 20.64 19.4736Z" fill="white"/>
</g>
<defs>
<clipPath id="clip0_64_281">
<rect width="32" height="31" fill="white"/>
</clipPath>
</defs>
</svg>
