<svg width="31" height="30" viewBox="0 0 31 30" fill="none" xmlns="http://www.w3.org/2000/svg">
<g clip-path="url(#clip0_64_270)">
<path d="M5.48908 0.00268555H25.5109C28.5456 0.00268555 31 2.43828 31 5.44979V24.5506C31 27.5621 28.5456 29.9977 25.5109 29.9977H5.48908C2.45437 29.9977 0 27.5621 0 24.5506V5.44979C0 2.43828 2.45437 0.00268555 5.48908 0.00268555Z" fill="black"/>
<path d="M10.8813 21.2029H3.50606C3.37307 21.2029 3.32471 21.1309 3.32471 20.9749V7.87309C3.32471 7.74111 3.37307 7.69312 3.49397 7.69312H5.77907C5.86371 7.69312 5.91207 7.74111 5.91207 7.83709V18.5993H11.2802C11.4012 18.5993 11.4374 18.6593 11.4132 18.7793L11.0747 21.0109C11.0626 21.0829 11.0384 21.1429 11.0022 21.1669C10.9659 21.1909 10.9175 21.2029 10.8813 21.2029ZM12.719 10.9446H14.7623C14.8832 10.9446 14.9558 11.0046 15.0041 11.1485C15.0404 11.2325 15.0767 11.3405 15.0887 11.4485C15.1129 11.5805 15.125 11.7125 15.1371 11.8444C15.1492 11.9884 15.1492 12.1444 15.1492 12.3004C15.4877 11.8684 15.9109 11.4845 16.3945 11.1965C16.9144 10.8846 17.5189 10.7166 18.1235 10.7406C18.2444 10.7406 18.2927 10.8006 18.2927 10.9206V13.4162C18.2927 13.5242 18.2323 13.5601 18.1114 13.5601C17.7003 13.5362 17.2892 13.5601 16.8902 13.6441C16.5517 13.7161 16.2373 13.8361 15.923 13.9921C15.6933 14.1121 15.4756 14.28 15.2943 14.472V21.0109C15.2943 21.1429 15.2459 21.1909 15.1371 21.1909H12.8883C12.7553 21.1909 12.7069 21.1309 12.7069 20.9869V13.8841C12.7069 13.5721 12.7069 13.2602 12.6948 12.9243C12.6948 12.5883 12.6827 12.2524 12.6707 11.9284C12.6586 11.6405 12.6344 11.3645 12.5981 11.0766C12.5981 11.0406 12.5981 11.0046 12.6223 10.9566C12.6586 10.9446 12.6827 10.9326 12.719 10.9446ZM27.4573 9.04889C27.1913 8.92891 26.8891 8.86892 26.5868 8.83293C26.1515 8.78493 25.7042 8.76094 25.2689 8.76094C23.9994 8.76094 22.8871 9.0249 21.9803 9.55281C21.0735 10.0807 20.3239 10.8606 19.8403 11.7964C19.3325 12.7443 19.0907 13.8721 19.0907 15.1319C19.0786 15.8878 19.1753 16.6436 19.3809 17.3875C19.5622 18.0114 19.8282 18.5993 20.203 19.1392C20.5536 19.6431 20.9768 20.0631 21.4725 20.411C21.9682 20.759 22.5244 21.0229 23.1168 21.1789C23.7214 21.3469 24.3742 21.4308 25.0029 21.4308C25.4503 21.4308 25.8976 21.4068 26.3329 21.3469C26.6956 21.3109 27.0462 21.2149 27.3848 21.0949C27.5178 21.0349 27.5903 20.9029 27.5782 20.747V18.8393C27.5903 18.7793 27.5661 18.6953 27.5178 18.6473C27.4815 18.6233 27.4089 18.5873 27.3122 18.6593C27.0221 18.7673 26.7198 18.8393 26.4054 18.8753C26.0306 18.9113 25.6558 18.9233 25.281 18.9233C24.9425 18.9233 24.5919 18.8753 24.2775 18.7793C23.9269 18.6953 23.6004 18.5513 23.2982 18.3714C22.9717 18.1794 22.7058 17.9274 22.4881 17.6275C22.2463 17.2915 22.0529 16.9196 21.9199 16.5237C21.7748 16.0317 21.7022 15.5398 21.7143 15.0239C21.7022 14.316 21.8473 13.6081 22.1375 12.9722C22.4035 12.4203 22.8267 11.9524 23.3465 11.6285C23.9148 11.2925 24.5677 11.1245 25.2327 11.1365C25.6316 11.1365 26.0427 11.1605 26.4417 11.2445C26.7682 11.2925 27.0704 11.4005 27.3727 11.5565C27.421 11.5805 27.4936 11.5805 27.5419 11.5565C27.5903 11.5085 27.6266 11.4365 27.6145 11.3645V9.36084C27.6145 9.22886 27.5661 9.12088 27.4573 9.04889Z" fill="white"/>
</g>
<defs>
<clipPath id="clip0_64_270">
<rect width="31" height="30" fill="white"/>
</clipPath>
</defs>
</svg>
