<svg width="32" height="31" viewBox="0 0 32 31" fill="none" xmlns="http://www.w3.org/2000/svg">
<g clip-path="url(#clip0_64_297)">
<path d="M5.48958 0.00341797H25.5104C28.5458 0.00341797 31 2.52 31 5.63261V25.3679C31 28.4805 28.5458 30.9971 25.5104 30.9971H5.48958C2.45417 30.9971 0 28.4805 0 25.3679V5.63261C0 2.52 2.45417 0.00341797 5.48958 0.00341797Z" fill="black"/>
<path d="M6.9751 21.7385V8.1092C6.9751 8.01648 7.01385 7.9635 7.10426 7.9635C7.32385 7.9635 7.53051 7.9635 7.8276 7.95026C8.1376 7.93701 8.46051 7.93701 8.80926 7.92377C9.15801 7.91052 9.5326 7.91052 9.93301 7.89728C10.3334 7.88403 10.7209 7.88403 11.1084 7.88403C12.1676 7.88403 13.0459 8.01648 13.7693 8.29463C14.4151 8.5198 15.0093 8.89066 15.5001 9.38074C15.9134 9.80458 16.2363 10.3211 16.443 10.8907C16.6368 11.447 16.7401 12.0165 16.7401 12.6125C16.7401 13.7516 16.4818 14.692 15.9651 15.4338C15.4484 16.1755 14.7251 16.7318 13.8855 17.0497C13.0072 17.3808 12.0384 17.5 10.9793 17.5C10.6693 17.5 10.4626 17.5 10.3334 17.4868C10.2043 17.4735 10.0234 17.4735 9.77801 17.4735V21.7252C9.79093 21.8179 9.72635 21.8974 9.63593 21.9106H7.1301C7.02676 21.9106 6.9751 21.8577 6.9751 21.7385ZM9.79093 10.5198V14.9702C9.97176 14.9834 10.1397 14.9967 10.2947 14.9967H10.9793C11.483 14.9967 11.9868 14.9172 12.4647 14.7583C12.878 14.6391 13.2397 14.3874 13.5238 14.0563C13.7951 13.7251 13.9243 13.2748 13.9243 12.692C13.9372 12.2814 13.8338 11.8708 13.6272 11.5132C13.4076 11.1688 13.0976 10.9039 12.723 10.7582C12.2451 10.5596 11.7284 10.4801 11.1988 10.4933C10.863 10.4933 10.5659 10.4933 10.3205 10.5066C10.0622 10.4933 9.88135 10.5066 9.79093 10.5198ZM24.8001 14.1622C24.4126 13.9503 23.9993 13.8046 23.5601 13.7119C23.0822 13.6059 22.6043 13.5397 22.1134 13.5397C21.8551 13.5265 21.5838 13.5662 21.3384 13.6324C21.1705 13.6722 21.0284 13.7649 20.938 13.8973C20.8734 14.0033 20.8347 14.1357 20.8347 14.2549C20.8347 14.3742 20.8863 14.4934 20.9638 14.5993C21.0801 14.745 21.2351 14.8642 21.403 14.9569C21.7001 15.1159 22.0101 15.2616 22.3201 15.394C23.0176 15.6324 23.6893 15.9636 24.3093 16.3609C24.7355 16.6391 25.0843 17.0099 25.3297 17.4603C25.5363 17.8841 25.6397 18.3477 25.6268 18.8245C25.6397 19.447 25.4588 20.0696 25.123 20.5861C24.7613 21.1159 24.2576 21.5265 23.6763 21.7649C23.0434 22.0431 22.2684 22.1888 21.3384 22.1888C20.7443 22.1888 20.163 22.1358 19.5818 22.0166C19.1297 21.9371 18.6776 21.7914 18.2643 21.5928C18.1738 21.5398 18.1093 21.4471 18.1222 21.3411V19.0364C18.1222 18.9967 18.1351 18.9437 18.1738 18.9172C18.2126 18.8907 18.2513 18.904 18.2901 18.9305C18.7938 19.2351 19.3234 19.447 19.8918 19.5795C20.3826 19.7119 20.8993 19.7782 21.4159 19.7782C21.9068 19.7782 22.2555 19.7119 22.488 19.5927C22.6947 19.5 22.8368 19.2749 22.8368 19.0364C22.8368 18.851 22.7334 18.6788 22.5268 18.5066C22.3201 18.3345 21.8938 18.1358 21.2609 17.8841C20.6022 17.6457 19.9951 17.3278 19.4268 16.9305C19.0263 16.6391 18.6905 16.255 18.4451 15.8046C18.2384 15.3808 18.1351 14.9172 18.148 14.4536C18.148 13.8841 18.303 13.341 18.5872 12.851C18.9101 12.3212 19.388 11.8973 19.9434 11.6324C20.5505 11.3145 21.3126 11.1688 22.2297 11.1688C22.7593 11.1688 23.3018 11.2086 23.8313 11.288C24.2188 11.341 24.5934 11.447 24.9422 11.5927C24.9938 11.6059 25.0455 11.6589 25.0713 11.7119C25.0843 11.7649 25.0972 11.8178 25.0972 11.8708V14.0298C25.0972 14.0828 25.0713 14.1357 25.0326 14.1622C24.9163 14.1887 24.8518 14.1887 24.8001 14.1622Z" fill="white"/>
</g>
<defs>
<clipPath id="clip0_64_297">
<rect width="31" height="31" fill="white"/>
</clipPath>
</defs>
</svg>
